<svg xmlns="http://www.w3.org/2000/svg" width="800" height="600" fill="none" viewBox="0 0 800 600"><g clip-path="url(#clip0_209_14)"><path stroke="#004797" stroke-miterlimit="10" stroke-width="3" d="M572.859 199.591C623 199.591 663.647 158.944 663.647 108.803C663.647 58.6622 623 18.015 572.859 18.015C522.718 18.015 482.071 58.6622 482.071 108.803C482.071 158.944 522.718 199.591 572.859 199.591Z"/><path stroke="#004797" stroke-miterlimit="10" stroke-width="3" d="M548.891 75.393C556.112 75.393 561.965 69.5396 561.965 62.319C561.965 55.0984 556.112 49.245 548.891 49.245C541.671 49.245 535.817 55.0984 535.817 62.319C535.817 69.5396 541.671 75.393 548.891 75.393Z"/><path stroke="#004797" stroke-miterlimit="10" stroke-width="3" d="M591.743 166.907C596.155 166.907 599.732 163.33 599.732 158.918C599.732 154.506 596.155 150.929 591.743 150.929C587.331 150.929 583.754 154.506 583.754 158.918C583.754 163.33 587.331 166.907 591.743 166.907Z"/><path stroke="#004797" stroke-linecap="round" stroke-miterlimit="10" stroke-width="3" d="M476.562 101.461C446.158 103.625 426.871 105.682 426.871 109.468C426.871 116.321 490.037 121.876 567.956 121.876C645.875 121.876 709.041 116.321 709.041 109.468C709.041 106.09 693.694 104.48 668.798 102.243"/><path stroke="#004797" stroke-linecap="round" stroke-miterlimit="10" stroke-width="3" d="M483.985 127.43C507.447 128.961 536.5 129.866 567.957 129.866C604.026 129.866 636.935 128.676 661.879 126.717" opacity=".5"/><path stroke="#004797" stroke-linecap="round" stroke-miterlimit="10" stroke-width="3" d="M518.07 245.375V266.581"/><path stroke="#004797" stroke-linecap="round" stroke-miterlimit="10" stroke-width="3" d="M508.129 255.978H528.01"/><path stroke="#004797" stroke-linecap="round" stroke-miterlimit="10" stroke-width="3" d="M154.55 231.391V252.598"/><path stroke="#004797" stroke-linecap="round" stroke-miterlimit="10" stroke-width="3" d="M144.608 241.995H164.489"/><path stroke="#004797" stroke-linecap="round" stroke-miterlimit="10" stroke-width="3" d="M320.135 132.746V153.952"/><path stroke="#004797" stroke-linecap="round" stroke-miterlimit="10" stroke-width="3" d="M310.193 143.349H330.074"/><path stroke="#004797" stroke-linecap="round" stroke-miterlimit="10" stroke-width="3" d="M200.67 483.11V504.316"/><path stroke="#004797" stroke-linecap="round" stroke-miterlimit="10" stroke-width="3" d="M210.61 493.713H190.729"/><path stroke="#004797" stroke-linecap="round" stroke-miterlimit="10" stroke-width="3" d="M432.172 380.52V391.83"/><path stroke="#004797" stroke-linecap="round" stroke-miterlimit="10" stroke-width="3" d="M426.87 386.175H437.473"/><path stroke="#004797" stroke-linecap="round" stroke-miterlimit="10" stroke-width="3" d="M489.555 299.765V308.124"/><path stroke="#004797" stroke-linecap="round" stroke-miterlimit="10" stroke-width="3" d="M485.636 303.945H493.473"/><path stroke="#004797" stroke-linecap="round" stroke-miterlimit="10" stroke-width="3" d="M231.468 291.009V299.369"/><path stroke="#004797" stroke-linecap="round" stroke-miterlimit="10" stroke-width="3" d="M227.55 295.189H235.387"/><path stroke="#004797" stroke-linecap="round" stroke-miterlimit="10" stroke-width="3" d="M244.031 547.539V555.898"/><path stroke="#004797" stroke-linecap="round" stroke-miterlimit="10" stroke-width="3" d="M247.949 551.719H240.112"/><path stroke="#004797" stroke-linecap="round" stroke-miterlimit="10" stroke-width="3" d="M186.358 406.967V415.326"/><path stroke="#004797" stroke-linecap="round" stroke-miterlimit="10" stroke-width="3" d="M190.276 411.146H182.439"/><path stroke="#004797" stroke-linecap="round" stroke-miterlimit="10" stroke-width="3" d="M480.295 406.967V415.326"/><path stroke="#004797" stroke-linecap="round" stroke-miterlimit="10" stroke-width="3" d="M484.214 411.146H476.377"/><path stroke="#004797" stroke-linecap="round" stroke-miterlimit="10" stroke-width="3" d="M588.976 263.93C593.368 263.93 596.928 260.37 596.928 255.978C596.928 251.586 593.368 248.026 588.976 248.026C584.585 248.026 581.024 251.586 581.024 255.978C581.024 260.37 584.585 263.93 588.976 263.93Z"/><path stroke="#004797" stroke-linecap="round" stroke-miterlimit="10" stroke-width="3" d="M450.065 328.211C454.457 328.211 458.017 324.651 458.017 320.259C458.017 315.867 454.457 312.307 450.065 312.307C445.674 312.307 442.113 315.867 442.113 320.259C442.113 324.651 445.674 328.211 450.065 328.211Z"/><path stroke="#004797" stroke-linecap="round" stroke-miterlimit="10" stroke-width="3" d="M168.303 361.705C172.694 361.705 176.255 358.145 176.255 353.753C176.255 349.361 172.694 345.801 168.303 345.801C163.911 345.801 160.351 349.361 160.351 353.753C160.351 358.145 163.911 361.705 168.303 361.705Z"/><path stroke="#004797" stroke-linecap="round" stroke-miterlimit="10" stroke-width="3" d="M429.521 209.137C433.913 209.137 437.473 205.577 437.473 201.185C437.473 196.793 433.913 193.233 429.521 193.233C425.13 193.233 421.569 196.793 421.569 201.185C421.569 205.577 425.13 209.137 429.521 209.137Z"/><path stroke="#004797" stroke-linecap="round" stroke-miterlimit="10" stroke-width="3" d="M200.67 184.265C205.062 184.265 208.622 180.705 208.622 176.313C208.622 171.921 205.062 168.361 200.67 168.361C196.278 168.361 192.718 171.921 192.718 176.313C192.718 180.705 196.278 184.265 200.67 184.265Z"/><path stroke="#004797" stroke-linecap="round" stroke-miterlimit="10" stroke-width="3" d="M133.343 484.966C137.734 484.966 141.295 481.406 141.295 477.014C141.295 472.622 137.734 469.062 133.343 469.062C128.951 469.062 125.391 472.622 125.391 477.014C125.391 481.406 128.951 484.966 133.343 484.966Z"/><path stroke="#004797" stroke-linecap="round" stroke-miterlimit="10" stroke-width="3" d="M283.52 575.985C287.912 575.985 291.472 572.425 291.472 568.033C291.472 563.641 287.912 560.081 283.52 560.081C279.129 560.081 275.568 563.641 275.568 568.033C275.568 572.425 279.129 575.985 283.52 575.985Z"/><path stroke="#004797" stroke-linecap="round" stroke-miterlimit="10" stroke-width="3" d="M413.618 490.339C418.01 490.339 421.57 486.779 421.57 482.387C421.57 477.995 418.01 474.435 413.618 474.435C409.226 474.435 405.666 477.995 405.666 482.387C405.666 486.779 409.226 490.339 413.618 490.339Z"/><path fill="#0E0620" d="M549.88 299.053C551.344 299.053 552.531 297.866 552.531 296.402C552.531 294.938 551.344 293.751 549.88 293.751C548.415 293.751 547.229 294.938 547.229 296.402C547.229 297.866 548.415 299.053 549.88 299.053Z"/><path fill="#0E0620" d="M253.29 231.891C254.754 231.891 255.941 230.704 255.941 229.24C255.941 227.776 254.754 226.589 253.29 226.589C251.826 226.589 250.639 227.776 250.639 229.24C250.639 230.704 251.826 231.891 253.29 231.891Z"/><path fill="#0E0620" d="M434.824 266.582C436.288 266.582 437.475 265.395 437.475 263.931C437.475 262.467 436.288 261.28 434.824 261.28C433.36 261.28 432.173 262.467 432.173 263.931C432.173 265.395 433.36 266.582 434.824 266.582Z"/><path fill="#0E0620" d="M183.708 546.827C185.172 546.827 186.359 545.64 186.359 544.176C186.359 542.712 185.172 541.525 183.708 541.525C182.244 541.525 181.057 542.712 181.057 544.176C181.057 545.64 182.244 546.827 183.708 546.827Z"/><path fill="#0E0620" d="M382.515 533.574C383.979 533.574 385.166 532.387 385.166 530.923C385.166 529.459 383.979 528.272 382.515 528.272C381.051 528.272 379.864 529.459 379.864 530.923C379.864 532.387 381.051 533.574 382.515 533.574Z"/><path fill="#0E0620" d="M130.693 308.259C132.157 308.259 133.344 307.072 133.344 305.608C133.344 304.144 132.157 302.957 130.693 302.957C129.229 302.957 128.042 304.144 128.042 305.608C128.042 307.072 129.229 308.259 130.693 308.259Z"/><path fill="#0E0620" d="M480.296 479.665C481.76 479.665 482.947 478.478 482.947 477.014C482.947 475.55 481.76 474.363 480.296 474.363C478.831 474.363 477.645 475.55 477.645 477.014C477.645 478.478 478.831 479.665 480.296 479.665Z"/><path stroke="#004797" stroke-linecap="round" stroke-linejoin="round" stroke-miterlimit="10" stroke-width="3" d="M273.813 410.969C273.813 410.969 219.286 450.47 158.473 449.187C156.193 449.139 153.547 448.946 150.632 448.639C82.5938 441.461 16.3439 404.676 -16.6981 344.769C-17.6061 343.123 -18.4911 341.469 -19.3521 339.805C-37.7471 304.294 -56.6111 256.42 -51.4271 220.988"/><path fill="#fff" stroke="#004797" stroke-linecap="round" stroke-linejoin="round" stroke-miterlimit="10" stroke-width="3" d="M338.164 454.689L273.438 437.336C262.352 434.364 255.774 422.967 258.746 411.881L274.44 353.344C278.329 338.84 293.239 330.234 307.743 334.123L360.092 348.158C374.596 352.047 383.202 366.957 379.313 381.461L363.619 439.998C360.647 451.083 349.251 457.661 338.164 454.689Z"/><path stroke="#004797" stroke-linecap="round" stroke-linejoin="round" stroke-miterlimit="10" stroke-width="3" d="M323.396 236.625L295.285 353.753"/><path fill="#fff" stroke="#004797" stroke-linecap="round" stroke-linejoin="round" stroke-miterlimit="10" stroke-width="3" d="M323.666 241.992C327.187 241.992 330.041 239.138 330.041 235.617C330.041 232.096 327.187 229.242 323.666 229.242C320.145 229.242 317.291 232.096 317.291 235.617C317.291 239.138 320.145 241.992 323.666 241.992Z"/><path fill="#fff" d="M360.633 363.039C361.985 364.1 365.543 368.095 366.457 369.673L394.331 417.307C398.186 423.956 395.921 432.471 389.272 436.327C382.623 440.182 374.108 437.917 370.252 431.268L364.649 421.605"/><path stroke="#004797" stroke-linecap="round" stroke-linejoin="round" stroke-miterlimit="10" stroke-width="3" d="M360.633 363.039C361.985 364.1 365.543 368.095 366.457 369.673L394.331 417.307C398.186 423.956 395.921 432.471 389.272 436.327C382.623 440.182 374.108 437.917 370.252 431.268L364.649 421.605"/><path fill="#fff" stroke="#004797" stroke-linecap="round" stroke-linejoin="round" stroke-miterlimit="10" stroke-width="3" d="M388.761 434.677C393.995 431.638 396.492 425.711 395.439 420.083C397.783 421.426 399.822 423.372 401.276 425.876C405.687 433.472 403.105 443.206 395.509 447.617C387.913 452.028 378.179 449.446 373.768 441.85C372.014 438.829 370.951 436.032 371.284 432.804C375.624 437.355 383.086 437.973 388.761 434.677Z"/><path fill="#fff" d="M301.301 347.66C299.599 347.902 295.391 349.287 293.809 350.196L245.844 377.497C239.18 381.326 236.881 389.832 240.71 396.496C244.539 403.16 253.045 405.459 259.709 401.63L269.394 396.066"/><path stroke="#004797" stroke-linecap="round" stroke-linejoin="round" stroke-miterlimit="10" stroke-width="3" d="M301.301 347.66C299.599 347.902 295.391 349.287 293.809 350.196L245.844 377.497C239.18 381.326 236.881 389.832 240.71 396.496C244.539 403.16 253.045 405.459 259.709 401.63L269.394 396.066"/><path fill="#fff" stroke="#004797" stroke-linecap="round" stroke-linejoin="round" stroke-miterlimit="10" stroke-width="3" d="M241.978 395.324C238.966 390.074 239.769 383.693 243.496 379.347C240.795 379.338 238.056 380.003 235.544 381.443C227.925 385.814 225.291 395.533 229.661 403.153C234.032 410.772 243.751 413.406 251.37 409.036C254.4 407.298 256.72 405.408 258.046 402.446C252.013 404.214 245.243 401.017 241.978 395.324Z"/><path fill="#fff" stroke="#004797" stroke-linecap="round" stroke-linejoin="round" stroke-miterlimit="10" stroke-width="3" d="M353.351 365.387C345.403 366.65 337.102 366.316 328.871 364.109C320.639 361.902 313.285 358.039 307.035 352.969C290.031 357.176 275.766 370.258 270.907 388.38L269.533 393.503C262.421 420.028 278.15 447.294 304.663 454.402C331.176 461.51 358.434 445.77 365.546 419.244L366.92 414.121C371.778 395.999 365.971 377.536 353.351 365.387Z"/><path stroke="#004797" stroke-linecap="round" stroke-linejoin="round" stroke-miterlimit="10" stroke-width="3" d="M269.678 394.912C295.978 415.555 329.332 424.497 362.784 420.636L365.203 420.522"/><path fill="#fff" stroke="#004797" stroke-linecap="round" stroke-linejoin="round" stroke-miterlimit="10" stroke-width="3" d="M312.956 456.734L298.641 510.129C296.745 517.199 300.94 524.467 308.011 526.363C315.081 528.259 322.349 524.064 324.245 516.993L342.083 450.459C333.45 455.886 323.525 457.387 312.956 456.734Z"/><path stroke="#004797" stroke-linecap="round" stroke-linejoin="round" stroke-miterlimit="10" stroke-width="3" d="M304.882 486.849L330.486 493.713"/><path fill="#fff" stroke="#004797" stroke-linecap="round" stroke-linejoin="round" stroke-miterlimit="10" stroke-width="3" d="M296.315 452.273L282 505.667C280.104 512.737 272.836 516.932 265.766 515.037C258.696 513.141 254.501 505.873 256.396 498.803L274.234 432.269C278.993 441.286 286.836 447.55 296.315 452.273Z"/><path stroke="#004797" stroke-linecap="round" stroke-linejoin="round" stroke-miterlimit="10" stroke-width="3" d="M262.638 475.522L288.241 482.387"/><path fill="#fff" stroke="#004797" stroke-linecap="round" stroke-linejoin="round" stroke-miterlimit="10" stroke-width="3" d="M399.562 330.839C408.425 297.786 389.531 263.998 357.361 255.372C325.191 246.746 291.928 266.548 283.065 299.601C274.201 332.654 293.095 366.442 325.265 375.068C357.435 383.694 390.699 363.892 399.562 330.839Z"/><path stroke="#004797" stroke-linecap="round" stroke-linejoin="round" stroke-miterlimit="10" stroke-width="3" d="M330.867 261.338C322.938 263.058 315.486 266.584 309.068 271.584"/><path fill="#fff" stroke="#004797" stroke-linecap="round" stroke-linejoin="round" stroke-miterlimit="10" stroke-width="3" d="M380.857 346.164C379.61 350.815 376.189 354.585 371.661 356.224C362.329 359.601 345.461 364.041 329.36 359.724C313.259 355.407 300.875 343.125 294.483 335.532C291.382 331.848 290.306 326.872 291.553 322.221L299.006 294.423C299.762 291.603 302.187 289.555 305.094 289.293C311.849 288.683 325.64 288.685 346.879 294.38C368.118 300.075 380.06 306.971 385.604 310.878C387.991 312.56 389.065 315.546 388.309 318.366L380.857 346.164Z"/><path stroke="#004797" stroke-miterlimit="10" stroke-width="3" d="M278.436 375.599L383.003 264.076L364.393 251.618L264.807 364.928L278.436 375.599Z"/></g><defs><clipPath id="clip0_209_14"><rect width="800" height="600" fill="#fff"/></clipPath></defs></svg>