<svg xmlns="http://www.w3.org/2000/svg" width="631" height="533" fill="none" viewBox="0 0 631 533"><g clip-path="url(#clip0_127_14)"><path fill="#FFB8B8" d="M93.5122 510.086L105.746 513.506L124.762 467.944L106.706 462.896L93.5122 510.086Z"/><path fill="#2F2E41" d="M126.166 531.464L87.7143 520.713L91.8678 505.857L116.95 512.87C120.496 513.861 123.502 516.22 125.309 519.429C127.115 522.637 127.573 526.431 126.581 529.977L126.166 531.464Z"/><path fill="#FFB8B8" d="M239.451 519.667L252.155 519.666L258.196 470.666L239.447 470.667L239.451 519.667Z"/><path fill="#2F2E41" d="M276.656 531.46L236.73 531.464L236.729 516.038L262.772 516.035C264.595 516.035 266.401 516.394 268.085 517.092C269.769 517.789 271.3 518.812 272.589 520.1C273.878 521.389 274.901 522.92 275.598 524.604C276.296 526.288 276.655 528.093 276.656 529.916L276.656 531.46V531.46Z"/><path fill="#B3B3B3" d="M145.049 316.237L115.809 387.868L235.206 414.691L236.729 374.615L182.513 316.868L145.049 316.237Z"/><path fill="#FFB8B8" d="M209.83 204.65C223.056 197.42 227.917 180.837 220.686 167.611C213.456 154.385 196.873 149.524 183.647 156.754C170.421 163.984 165.56 180.567 172.79 193.793C180.02 207.019 196.604 211.88 209.83 204.65Z"/><path fill="#004797" d="M216.24 312.273L162.196 290.15L157.384 258.423C155.967 249.149 158.18 239.686 163.562 232.002C168.944 224.318 177.082 219.004 186.282 217.167L193.43 215.731C199.302 214.556 205.373 214.831 211.115 216.534C216.857 218.237 222.096 221.316 226.377 225.503C230.571 229.511 233.708 234.494 235.506 240.009C237.305 245.524 237.709 251.399 236.684 257.108C235.877 262 233.893 266.623 230.903 270.578C213.925 292.78 216.104 311.236 216.129 311.42L216.24 312.273Z"/><path fill="#2F2E41" d="M238.245 395.015L211.161 351.94L219.691 273.586L207.907 214.985L208.534 215C215.388 215.17 221.914 217.969 226.761 222.818C231.608 227.667 234.405 234.195 234.571 241.049L246.035 298.473L238.245 395.015Z"/><path fill="#2F2E41" d="M238.864 510.404C237.722 510.403 236.616 510.007 235.734 509.283C234.851 508.56 234.245 507.553 234.02 506.434L222.154 447.429C219.987 436.618 215.905 426.282 210.103 416.907L176.621 362.746C176.454 362.476 176.216 362.258 175.934 362.115C175.651 361.972 175.335 361.909 175.019 361.935C174.703 361.96 174.4 362.072 174.144 362.258C173.887 362.444 173.687 362.697 173.566 362.99L118.519 495.227C118.076 496.284 117.281 497.155 116.268 497.692C115.256 498.229 114.089 498.398 112.966 498.171L98.2604 495.173C97.0006 494.922 95.8889 494.188 95.1627 493.128C94.4364 492.069 94.1531 490.767 94.373 489.502L106.369 418.804C108.816 404.394 112.986 390.33 118.788 376.915L159.415 283.021L219.37 302.711L223.327 344.694L251.029 411.772C252.943 416.405 254.088 421.319 254.417 426.321L259.534 503.846C259.614 505.14 259.185 506.413 258.338 507.395C257.492 508.377 256.295 508.989 255.003 509.1L239.271 510.387C239.135 510.398 238.999 510.404 238.864 510.404Z"/><path fill="#2F2E41" d="M129.491 414.225L110.484 396.183L146.405 257.666C148.684 248.956 152.957 240.897 158.887 234.123C164.816 227.349 172.239 222.047 180.57 218.635L181.275 218.348L179.356 302.652L129.491 414.225Z"/><path fill="#2F2E41" d="M190.378 207.897C183.635 202.061 181.585 191.173 185.716 183.147C189.848 175.12 199.727 170.799 208.174 173.324C216.13 175.702 225.174 167.77 224.205 159.265C223.236 150.76 212.656 145.22 205.453 149.445C199.997 147.256 194.026 146.689 188.256 147.813C182.486 148.937 177.164 151.703 172.929 155.78C164.466 164.071 161.255 177.624 165.054 189.021C168.854 200.418 179.459 209.047 190.378 207.897Z"/><path fill="#fff" d="M166.503 429.714C166.17 429.842 165.823 429.931 165.47 429.98L122.075 436.038C121.025 436.188 119.955 435.976 119.042 435.438C118.128 434.899 117.425 434.066 117.048 433.075L79.6951 335.88C79.4532 335.25 79.3498 334.576 79.392 333.904C79.4342 333.231 79.6209 332.575 79.9394 331.981C80.2579 331.387 80.7008 330.868 81.2378 330.461C81.7748 330.053 82.3934 329.766 83.0514 329.619L83.0516 329.619L123.86 320.513C124.175 320.442 124.48 320.331 124.766 320.181L164.458 299.429C164.764 299.268 165.088 299.142 165.423 299.054L209.104 287.409C210.223 287.108 211.413 287.233 212.445 287.759C213.477 288.286 214.277 289.176 214.69 290.258L247.26 375.006C247.546 375.744 247.639 376.543 247.532 377.328C247.424 378.112 247.118 378.856 246.644 379.49L235.38 394.616C234.85 395.328 234.129 395.874 233.3 396.192L208.684 405.652C208.508 405.72 208.337 405.802 208.173 405.896L167.154 429.404C166.945 429.524 166.728 429.627 166.503 429.714V429.714Z"/><path fill="#E6E6E6" d="M186.692 300.365L181.145 301.845L166.446 305.765L166.42 305.771L146.295 316.294L138.826 320.2L138.823 320.201L127.606 326.065L127.298 326.134L115.646 328.733L110.014 329.992L87.0449 335.118L123.104 428.946L146.774 425.643L152.577 424.832L164.947 423.103L165.091 423.085L204.84 400.303L229.025 391.008L240.067 376.181L208.678 294.505L186.692 300.365Z"/><path fill="#fff" d="M213.85 307.961L94.2695 353.917L96.3174 359.245L215.897 313.29L213.85 307.961Z"/><path fill="#fff" d="M220.676 325.723L101.096 371.679L103.144 377.007L222.724 331.052L220.676 325.723Z"/><path fill="#fff" d="M234.464 361.602L114.884 407.558L116.932 412.886L236.512 366.931L234.464 361.602Z"/><path fill="#fff" d="M186.692 300.365L222.492 393.519L217.164 395.567L181.145 301.845L186.692 300.365Z"/><path fill="#fff" d="M146.295 316.294L138.944 336.748L136.395 343.843L130.449 360.398L129.175 363.937L127.9 367.493L126.221 372.162L114.17 405.7L111.037 397.547L120.863 370.198L123.086 364.006L123.412 363.102L126.041 355.781L129.358 346.548L131.907 339.452L138.823 320.201L138.826 320.2L146.295 316.294Z"/><path fill="#000" d="M205.707 399.97L204.84 400.303L165.091 423.085L164.947 423.103L127.298 326.134L127.606 326.065L138.823 320.201L138.826 320.2L146.295 316.294L166.42 305.771L166.446 305.765L205.707 399.97Z" opacity=".1"/><path fill="#E6E6E6" d="M166.682 430.18C166.313 430.322 165.93 430.421 165.539 430.475L122.144 436.533C120.982 436.699 119.798 436.465 118.787 435.869C117.776 435.273 116.998 434.351 116.581 433.254L79.2283 336.059C78.9607 335.363 78.8463 334.617 78.893 333.872C78.9397 333.128 79.1463 332.402 79.4988 331.745C79.8512 331.087 80.3413 330.513 80.9356 330.062C81.5299 329.611 82.2144 329.294 82.9425 329.131L123.751 320.025C124.023 319.963 124.286 319.867 124.534 319.738L164.226 298.986C164.565 298.808 164.923 298.669 165.293 298.57L208.975 286.925C210.213 286.593 211.531 286.731 212.672 287.314C213.814 287.896 214.699 288.881 215.157 290.078L247.726 374.827C248.043 375.644 248.146 376.528 248.027 377.396C247.908 378.264 247.57 379.087 247.045 379.789L235.781 394.914C235.195 395.702 234.397 396.307 233.48 396.659L208.864 406.119C208.711 406.178 208.563 406.248 208.421 406.329L167.402 429.838C167.171 429.971 166.931 430.085 166.682 430.18V430.18ZM82.9278 331.219C82.1383 331.523 81.5018 332.128 81.1581 332.901C80.8145 333.674 80.7918 334.552 81.0952 335.342L118.448 432.537C118.704 433.211 119.183 433.778 119.804 434.144C120.426 434.51 121.153 434.654 121.867 434.552L165.262 428.494C165.666 428.438 166.055 428.305 166.408 428.103L207.427 404.594C207.658 404.462 207.898 404.348 208.146 404.252L232.762 394.792C233.326 394.576 233.816 394.204 234.177 393.72L245.44 378.594C245.763 378.163 245.971 377.657 246.045 377.123C246.118 376.59 246.054 376.046 245.86 375.544L213.29 290.796C213.009 290.06 212.465 289.454 211.763 289.096C211.061 288.738 210.252 288.653 209.491 288.857L165.809 300.503C165.582 300.564 165.362 300.65 165.153 300.758L125.461 321.511C125.058 321.72 124.63 321.877 124.187 321.977L83.3783 331.083C83.225 331.117 83.0744 331.163 82.9278 331.219Z"/><path fill="#fff" d="M115.646 328.733L152.577 424.832L146.774 425.643L110.014 329.992L115.646 328.733Z"/><path fill="#3F3D56" d="M126.267 367.523C127.739 367.523 128.931 366.33 128.931 364.859C128.931 363.387 127.739 362.195 126.267 362.195C124.796 362.195 123.604 363.387 123.604 364.859C123.604 366.33 124.796 367.523 126.267 367.523Z"/><path fill="#004797" d="M220.723 370.362C222.194 370.362 223.387 369.17 223.387 367.698C223.387 366.227 222.194 365.034 220.723 365.034C219.252 365.034 218.059 366.227 218.059 367.698C218.059 369.17 219.252 370.362 220.723 370.362Z"/><path fill="#004797" d="M221.802 319.583C224.825 327.45 221.187 353.522 219.907 361.891C219.867 362.156 219.757 362.406 219.588 362.615C219.42 362.824 219.199 362.985 218.949 363.082C218.698 363.178 218.427 363.206 218.162 363.164C217.896 363.121 217.647 363.009 217.44 362.839C210.885 357.481 190.722 340.556 187.699 332.688C186.838 330.449 186.427 328.062 186.489 325.664C186.551 323.266 187.084 320.904 188.059 318.712C189.034 316.52 190.431 314.542 192.171 312.89C193.91 311.238 195.958 309.945 198.197 309.084C200.436 308.224 202.823 307.812 205.221 307.874C207.619 307.936 209.982 308.47 212.174 309.445C214.365 310.42 216.344 311.817 217.996 313.556C219.648 315.295 220.941 317.343 221.802 319.582V319.583Z"/><path fill="#fff" d="M204.75 336.03C210.215 336.03 214.645 331.6 214.645 326.135C214.645 320.671 210.215 316.241 204.75 316.241C199.285 316.241 194.855 320.671 194.855 326.135C194.855 331.6 199.285 336.03 204.75 336.03Z"/><path fill="#FFB8B8" d="M192.04 304.785C192.441 303.316 193.159 301.952 194.143 300.789C195.128 299.627 196.355 298.695 197.739 298.058C199.123 297.422 200.63 297.096 202.153 297.105C203.677 297.114 205.179 297.456 206.556 298.109L224.22 282.141L236.541 290.509L211.28 312.708C210.031 314.948 208.003 316.651 205.582 317.496C203.16 318.341 200.513 318.269 198.141 317.292C195.77 316.316 193.839 314.503 192.714 312.198C191.59 309.893 191.35 307.256 192.04 304.785V304.785Z"/><path fill="#2F2E41" d="M220.501 309.997L206.655 291.206L238.222 271.003L215.597 238.719C213.748 236.082 212.938 232.854 213.321 229.656C213.704 226.458 215.253 223.514 217.672 221.387C220.091 219.26 223.209 218.1 226.43 218.13C229.651 218.159 232.748 219.376 235.127 221.547L263.456 247.394C266.154 249.856 268.248 252.907 269.574 256.311C270.9 259.714 271.422 263.378 271.1 267.017C270.777 270.655 269.62 274.17 267.716 277.288C265.813 280.406 263.216 283.042 260.126 284.991L220.501 309.997Z"/><path fill="#FFB8B8" d="M112.021 359.301C113.272 358.433 114.318 357.301 115.085 355.984C115.852 354.668 116.321 353.2 116.459 351.683C116.597 350.166 116.4 348.637 115.884 347.204C115.367 345.771 114.542 344.469 113.467 343.389L122.62 321.407L110.619 312.587L98.129 343.811C96.4347 345.736 95.5056 348.216 95.5177 350.781C95.5298 353.346 96.4822 355.817 98.1945 357.726C99.9069 359.636 102.26 360.85 104.808 361.141C107.357 361.431 109.923 360.776 112.021 359.301V359.301Z"/><path fill="#2F2E41" d="M118.205 336.981L96.5586 331.94L112.689 285.425C115.469 277.399 119.57 269.894 124.823 263.22L151.139 229.755C153.546 226.694 157.068 224.712 160.933 224.243C164.799 223.773 168.693 224.855 171.762 227.251C174.832 229.647 176.826 233.162 177.309 237.025C177.792 240.889 176.724 244.787 174.339 247.865L145.138 285.553L118.205 336.981Z"/><path fill="#CCC" d="M382 532.5H1C0.734784 532.5 0.480414 532.395 0.292877 532.207C0.105341 532.02 0 531.765 0 531.5C0 531.235 0.105341 530.98 0.292877 530.793C0.480414 530.605 0.734784 530.5 1 530.5H382C382.265 530.5 382.52 530.605 382.707 530.793C382.895 530.98 383 531.235 383 531.5C383 531.765 382.895 532.02 382.707 532.207C382.52 532.395 382.265 532.5 382 532.5Z"/><path fill="#E6E6E6" d="M529.788 532H520.788V4.5C520.788 3.30653 521.262 2.16194 522.106 1.31802C522.95 0.47411 524.094 0 525.288 0C526.481 0 527.626 0.47411 528.47 1.31802C529.314 2.16194 529.788 3.30653 529.788 4.5V532Z"/><path fill="#CCC" d="M595 532.5H455C454.735 532.5 454.48 532.395 454.293 532.207C454.105 532.02 454 531.765 454 531.5C454 531.235 454.105 530.98 454.293 530.793C454.48 530.605 454.735 530.5 455 530.5H595C595.265 530.5 595.52 530.605 595.707 530.793C595.895 530.98 596 531.235 596 531.5C596 531.765 595.895 532.02 595.707 532.207C595.52 532.395 595.265 532.5 595 532.5Z"/><path fill="#004797" d="M592.238 69H461.288C460.095 68.9987 458.951 68.5241 458.107 67.6805C457.263 66.8369 456.789 65.6931 456.788 64.5V26.5C456.789 25.3069 457.263 24.1631 458.107 23.3195C458.951 22.4759 460.095 22.0013 461.288 22H592.247C593.015 22.0005 593.769 22.197 594.44 22.5708L628.305 41.4697C629.003 41.8592 629.584 42.4277 629.99 43.1165C630.395 43.8054 630.61 44.5899 630.612 45.3892C630.614 46.1886 630.402 46.974 630 47.6646C629.597 48.3553 629.018 48.9263 628.322 49.3188L594.448 68.4199C593.773 68.7997 593.012 68.9995 592.238 69Z"/><path fill="#fff" d="M485.362 43.09C485.014 42.358 484.51 41.794 483.85 41.398C483.19 40.99 482.422 40.786 481.546 40.786C480.67 40.786 479.878 40.99 479.17 41.398C478.474 41.794 477.922 42.37 477.514 43.126C477.118 43.87 476.92 44.734 476.92 45.718C476.92 46.702 477.118 47.566 477.514 48.31C477.922 49.054 478.474 49.63 479.17 50.038C479.878 50.434 480.67 50.632 481.546 50.632C482.77 50.632 483.778 50.266 484.57 49.534C485.362 48.802 485.824 47.812 485.956 46.564H480.952V45.232H487.702V46.492C487.606 47.524 487.282 48.472 486.73 49.336C486.178 50.188 485.452 50.866 484.552 51.37C483.652 51.862 482.65 52.108 481.546 52.108C480.382 52.108 479.32 51.838 478.36 51.298C477.4 50.746 476.638 49.984 476.074 49.012C475.522 48.04 475.246 46.942 475.246 45.718C475.246 44.494 475.522 43.396 476.074 42.424C476.638 41.44 477.4 40.678 478.36 40.138C479.32 39.586 480.382 39.31 481.546 39.31C482.878 39.31 484.054 39.64 485.074 40.3C486.106 40.96 486.856 41.89 487.324 43.09H485.362ZM494.169 52.162C493.245 52.162 492.405 51.952 491.649 51.532C490.905 51.112 490.317 50.518 489.885 49.75C489.465 48.97 489.255 48.07 489.255 47.05C489.255 46.042 489.471 45.154 489.903 44.386C490.347 43.606 490.947 43.012 491.703 42.604C492.459 42.184 493.305 41.974 494.241 41.974C495.177 41.974 496.023 42.184 496.779 42.604C497.535 43.012 498.129 43.6 498.561 44.368C499.005 45.136 499.227 46.03 499.227 47.05C499.227 48.07 498.999 48.97 498.543 49.75C498.099 50.518 497.493 51.112 496.725 51.532C495.957 51.952 495.105 52.162 494.169 52.162ZM494.169 50.722C494.757 50.722 495.309 50.584 495.825 50.308C496.341 50.032 496.755 49.618 497.067 49.066C497.391 48.514 497.553 47.842 497.553 47.05C497.553 46.258 497.397 45.586 497.085 45.034C496.773 44.482 496.365 44.074 495.861 43.81C495.357 43.534 494.811 43.396 494.223 43.396C493.623 43.396 493.071 43.534 492.567 43.81C492.075 44.074 491.679 44.482 491.379 45.034C491.079 45.586 490.929 46.258 490.929 47.05C490.929 47.854 491.073 48.532 491.361 49.084C491.661 49.636 492.057 50.05 492.549 50.326C493.041 50.59 493.581 50.722 494.169 50.722ZM513.902 39.454V40.786H510.482V52H508.844V40.786H505.406V39.454H513.902ZM520.22 52.162C519.296 52.162 518.456 51.952 517.7 51.532C516.956 51.112 516.368 50.518 515.936 49.75C515.516 48.97 515.306 48.07 515.306 47.05C515.306 46.042 515.522 45.154 515.954 44.386C516.398 43.606 516.998 43.012 517.754 42.604C518.51 42.184 519.356 41.974 520.292 41.974C521.228 41.974 522.074 42.184 522.83 42.604C523.586 43.012 524.18 43.6 524.612 44.368C525.056 45.136 525.278 46.03 525.278 47.05C525.278 48.07 525.05 48.97 524.594 49.75C524.15 50.518 523.544 51.112 522.776 51.532C522.008 51.952 521.156 52.162 520.22 52.162ZM520.22 50.722C520.808 50.722 521.36 50.584 521.876 50.308C522.392 50.032 522.806 49.618 523.118 49.066C523.442 48.514 523.604 47.842 523.604 47.05C523.604 46.258 523.448 45.586 523.136 45.034C522.824 44.482 522.416 44.074 521.912 43.81C521.408 43.534 520.862 43.396 520.274 43.396C519.674 43.396 519.122 43.534 518.618 43.81C518.126 44.074 517.73 44.482 517.43 45.034C517.13 45.586 516.98 46.258 516.98 47.05C516.98 47.854 517.124 48.532 517.412 49.084C517.712 49.636 518.108 50.05 518.6 50.326C519.092 50.59 519.632 50.722 520.22 50.722ZM541.897 39.454V52H540.259V46.312H533.869V52H532.231V39.454H533.869V44.962H540.259V39.454H541.897ZM548.996 52.162C548.072 52.162 547.232 51.952 546.476 51.532C545.732 51.112 545.144 50.518 544.712 49.75C544.292 48.97 544.082 48.07 544.082 47.05C544.082 46.042 544.298 45.154 544.73 44.386C545.174 43.606 545.774 43.012 546.53 42.604C547.286 42.184 548.132 41.974 549.068 41.974C550.004 41.974 550.85 42.184 551.606 42.604C552.362 43.012 552.956 43.6 553.388 44.368C553.832 45.136 554.054 46.03 554.054 47.05C554.054 48.07 553.826 48.97 553.37 49.75C552.926 50.518 552.32 51.112 551.552 51.532C550.784 51.952 549.932 52.162 548.996 52.162ZM548.996 50.722C549.584 50.722 550.136 50.584 550.652 50.308C551.168 50.032 551.582 49.618 551.894 49.066C552.218 48.514 552.38 47.842 552.38 47.05C552.38 46.258 552.224 45.586 551.912 45.034C551.6 44.482 551.192 44.074 550.688 43.81C550.184 43.534 549.638 43.396 549.05 43.396C548.45 43.396 547.898 43.534 547.394 43.81C546.902 44.074 546.506 44.482 546.206 45.034C545.906 45.586 545.756 46.258 545.756 47.05C545.756 47.854 545.9 48.532 546.188 49.084C546.488 49.636 546.884 50.05 547.376 50.326C547.868 50.59 548.408 50.722 548.996 50.722ZM568.069 41.956C568.837 41.956 569.521 42.118 570.121 42.442C570.721 42.754 571.195 43.228 571.543 43.864C571.891 44.5 572.065 45.274 572.065 46.186V52H570.445V46.42C570.445 45.436 570.199 44.686 569.707 44.17C569.227 43.642 568.573 43.378 567.745 43.378C566.893 43.378 566.215 43.654 565.711 44.206C565.207 44.746 564.955 45.532 564.955 46.564V52H563.335V46.42C563.335 45.436 563.089 44.686 562.597 44.17C562.117 43.642 561.463 43.378 560.635 43.378C559.783 43.378 559.105 43.654 558.601 44.206C558.097 44.746 557.845 45.532 557.845 46.564V52H556.207V42.136H557.845V43.558C558.169 43.042 558.601 42.646 559.141 42.37C559.693 42.094 560.299 41.956 560.959 41.956C561.787 41.956 562.519 42.142 563.155 42.514C563.791 42.886 564.265 43.432 564.577 44.152C564.853 43.456 565.309 42.916 565.945 42.532C566.581 42.148 567.289 41.956 568.069 41.956ZM583.752 46.69C583.752 47.002 583.734 47.332 583.698 47.68H575.814C575.874 48.652 576.204 49.414 576.804 49.966C577.416 50.506 578.154 50.776 579.018 50.776C579.726 50.776 580.314 50.614 580.782 50.29C581.262 49.954 581.598 49.51 581.79 48.958H583.554C583.29 49.906 582.762 50.68 581.97 51.28C581.178 51.868 580.194 52.162 579.018 52.162C578.082 52.162 577.242 51.952 576.498 51.532C575.766 51.112 575.19 50.518 574.77 49.75C574.35 48.97 574.14 48.07 574.14 47.05C574.14 46.03 574.344 45.136 574.752 44.368C575.16 43.6 575.73 43.012 576.462 42.604C577.206 42.184 578.058 41.974 579.018 41.974C579.954 41.974 580.782 42.178 581.502 42.586C582.222 42.994 582.774 43.558 583.158 44.278C583.554 44.986 583.752 45.79 583.752 46.69ZM582.06 46.348C582.06 45.724 581.922 45.19 581.646 44.746C581.37 44.29 580.992 43.948 580.512 43.72C580.044 43.48 579.522 43.36 578.946 43.36C578.118 43.36 577.41 43.624 576.822 44.152C576.246 44.68 575.916 45.412 575.832 46.348H582.06Z"/><path fill="#E6E6E6" d="M580.287 151H449.337C448.563 150.999 447.802 150.8 447.127 150.42L413.253 131.319C412.556 130.926 411.977 130.355 411.575 129.665C411.172 128.974 410.961 128.189 410.963 127.389C410.965 126.59 411.179 125.805 411.585 125.117C411.99 124.428 412.572 123.859 413.27 123.47L447.135 104.571C447.805 104.197 448.56 104.001 449.328 104H580.287C581.48 104.001 582.624 104.476 583.468 105.32C584.311 106.163 584.786 107.307 584.787 108.5V146.5C584.786 147.693 584.311 148.837 583.468 149.68C582.624 150.524 581.48 150.999 580.287 151Z"/><path fill="#E6E6E6" d="M580.787 231.5H449.837C449.063 231.499 448.302 231.3 447.627 230.92L413.753 211.819C413.056 211.426 412.477 210.855 412.075 210.165C411.672 209.474 411.461 208.689 411.463 207.889C411.465 207.09 411.679 206.305 412.085 205.617C412.49 204.928 413.072 204.359 413.77 203.97L447.635 185.071C448.305 184.697 449.06 184.501 449.828 184.5H580.787C581.98 184.501 583.124 184.976 583.968 185.82C584.811 186.663 585.286 187.807 585.287 189V227C585.286 228.193 584.811 229.337 583.968 230.18C583.124 231.024 581.98 231.499 580.787 231.5V231.5Z"/><path fill="#004797" d="M71.0344 43.248V53.616C71.0344 54.752 71.3304 55.624 71.9224 56.232C72.5144 56.824 73.3464 57.12 74.4184 57.12C75.5064 57.12 76.3464 56.824 76.9384 56.232C77.5304 55.624 77.8264 54.752 77.8264 53.616V43.248H81.2104V53.592C81.2104 55.016 80.8984 56.224 80.2744 57.216C79.6664 58.192 78.8424 58.928 77.8024 59.424C76.7784 59.92 75.6344 60.168 74.3704 60.168C73.1224 60.168 71.9864 59.92 70.9624 59.424C69.9544 58.928 69.1544 58.192 68.5624 57.216C67.9704 56.224 67.6744 55.016 67.6744 53.592V43.248H71.0344ZM89.5448 60.216C88.4568 60.216 87.4808 60.024 86.6168 59.64C85.7528 59.24 85.0648 58.704 84.5528 58.032C84.0568 57.36 83.7848 56.616 83.7368 55.8H87.1208C87.1848 56.312 87.4328 56.736 87.8648 57.072C88.3128 57.408 88.8648 57.576 89.5208 57.576C90.1608 57.576 90.6568 57.448 91.0088 57.192C91.3768 56.936 91.5608 56.608 91.5608 56.208C91.5608 55.776 91.3368 55.456 90.8888 55.248C90.4568 55.024 89.7608 54.784 88.8008 54.528C87.8088 54.288 86.9928 54.04 86.3528 53.784C85.7288 53.528 85.1848 53.136 84.7208 52.608C84.2728 52.08 84.0488 51.368 84.0488 50.472C84.0488 49.736 84.2568 49.064 84.6728 48.456C85.1048 47.848 85.7128 47.368 86.4968 47.016C87.2968 46.664 88.2328 46.488 89.3048 46.488C90.8888 46.488 92.1528 46.888 93.0968 47.688C94.0408 48.472 94.5608 49.536 94.6568 50.88H91.4408C91.3928 50.352 91.1688 49.936 90.7688 49.632C90.3848 49.312 89.8648 49.152 89.2088 49.152C88.6008 49.152 88.1288 49.264 87.7928 49.488C87.4728 49.712 87.3128 50.024 87.3128 50.424C87.3128 50.872 87.5368 51.216 87.9848 51.456C88.4328 51.68 89.1288 51.912 90.0728 52.152C91.0328 52.392 91.8248 52.64 92.4488 52.896C93.0728 53.152 93.6088 53.552 94.0568 54.096C94.5208 54.624 94.7608 55.328 94.7768 56.208C94.7768 56.976 94.5608 57.664 94.1288 58.272C93.7128 58.88 93.1048 59.36 92.3048 59.712C91.5208 60.048 90.6008 60.216 89.5448 60.216ZM109.895 53.064C109.895 53.544 109.863 53.976 109.799 54.36H100.079C100.159 55.32 100.495 56.072 101.087 56.616C101.679 57.16 102.407 57.432 103.271 57.432C104.519 57.432 105.407 56.896 105.935 55.824H109.559C109.175 57.104 108.439 58.16 107.351 58.992C106.263 59.808 104.927 60.216 103.343 60.216C102.063 60.216 100.911 59.936 99.8869 59.376C98.8789 58.8 98.0869 57.992 97.5109 56.952C96.9509 55.912 96.6709 54.712 96.6709 53.352C96.6709 51.976 96.9509 50.768 97.5109 49.728C98.0709 48.688 98.8549 47.888 99.8629 47.328C100.871 46.768 102.031 46.488 103.343 46.488C104.607 46.488 105.735 46.76 106.727 47.304C107.735 47.848 108.511 48.624 109.055 49.632C109.615 50.624 109.895 51.768 109.895 53.064ZM106.415 52.104C106.399 51.24 106.087 50.552 105.479 50.04C104.871 49.512 104.127 49.248 103.247 49.248C102.415 49.248 101.711 49.504 101.135 50.016C100.575 50.512 100.231 51.208 100.103 52.104H106.415ZM115.707 48.768C116.139 48.064 116.699 47.512 117.387 47.112C118.091 46.712 118.891 46.512 119.787 46.512V50.04H118.899C117.843 50.04 117.043 50.288 116.499 50.784C115.971 51.28 115.707 52.144 115.707 53.376V60H112.347V46.704H115.707V48.768ZM138.041 56.808H131.369L130.265 60H126.737L132.761 43.224H136.673L142.697 60H139.145L138.041 56.808ZM137.129 54.12L134.705 47.112L132.281 54.12H137.129ZM148.309 42.24V60H144.949V42.24H148.309ZM154.989 48.768C155.421 48.064 155.981 47.512 156.669 47.112C157.373 46.712 158.173 46.512 159.069 46.512V50.04H158.181C157.125 50.04 156.325 50.288 155.781 50.784C155.253 51.28 154.989 52.144 154.989 53.376V60H151.629V46.704H154.989V48.768ZM173.692 53.064C173.692 53.544 173.66 53.976 173.596 54.36H163.876C163.956 55.32 164.292 56.072 164.884 56.616C165.476 57.16 166.204 57.432 167.068 57.432C168.316 57.432 169.204 56.896 169.732 55.824H173.356C172.972 57.104 172.236 58.16 171.148 58.992C170.06 59.808 168.724 60.216 167.14 60.216C165.86 60.216 164.708 59.936 163.684 59.376C162.676 58.8 161.884 57.992 161.308 56.952C160.748 55.912 160.468 54.712 160.468 53.352C160.468 51.976 160.748 50.768 161.308 49.728C161.868 48.688 162.652 47.888 163.66 47.328C164.668 46.768 165.828 46.488 167.14 46.488C168.404 46.488 169.532 46.76 170.524 47.304C171.532 47.848 172.308 48.624 172.852 49.632C173.412 50.624 173.692 51.768 173.692 53.064ZM170.212 52.104C170.196 51.24 169.884 50.552 169.276 50.04C168.668 49.512 167.924 49.248 167.044 49.248C166.212 49.248 165.508 49.504 164.932 50.016C164.372 50.512 164.028 51.208 163.9 52.104H170.212ZM175.28 53.304C175.28 51.96 175.544 50.768 176.072 49.728C176.616 48.688 177.344 47.888 178.256 47.328C179.184 46.768 180.216 46.488 181.352 46.488C182.344 46.488 183.208 46.688 183.944 47.088C184.696 47.488 185.296 47.992 185.744 48.6V46.704H189.128V60H185.744V58.056C185.312 58.68 184.712 59.2 183.944 59.616C183.192 60.016 182.32 60.216 181.328 60.216C180.208 60.216 179.184 59.928 178.256 59.352C177.344 58.776 176.616 57.968 176.072 56.928C175.544 55.872 175.28 54.664 175.28 53.304ZM185.744 53.352C185.744 52.536 185.584 51.84 185.264 51.264C184.944 50.672 184.512 50.224 183.968 49.92C183.424 49.6 182.84 49.44 182.216 49.44C181.592 49.44 181.016 49.592 180.488 49.896C179.96 50.2 179.528 50.648 179.192 51.24C178.872 51.816 178.712 52.504 178.712 53.304C178.712 54.104 178.872 54.808 179.192 55.416C179.528 56.008 179.96 56.464 180.488 56.784C181.032 57.104 181.608 57.264 182.216 57.264C182.84 57.264 183.424 57.112 183.968 56.808C184.512 56.488 184.944 56.04 185.264 55.464C185.584 54.872 185.744 54.168 185.744 53.352ZM191.546 53.304C191.546 51.96 191.81 50.768 192.338 49.728C192.882 48.688 193.618 47.888 194.546 47.328C195.474 46.768 196.506 46.488 197.642 46.488C198.506 46.488 199.33 46.68 200.114 47.064C200.898 47.432 201.522 47.928 201.986 48.552V42.24H205.394V60H201.986V58.032C201.57 58.688 200.986 59.216 200.234 59.616C199.482 60.016 198.61 60.216 197.618 60.216C196.498 60.216 195.474 59.928 194.546 59.352C193.618 58.776 192.882 57.968 192.338 56.928C191.81 55.872 191.546 54.664 191.546 53.304ZM202.01 53.352C202.01 52.536 201.85 51.84 201.53 51.264C201.21 50.672 200.778 50.224 200.234 49.92C199.69 49.6 199.106 49.44 198.482 49.44C197.858 49.44 197.282 49.592 196.754 49.896C196.226 50.2 195.794 50.648 195.458 51.24C195.138 51.816 194.978 52.504 194.978 53.304C194.978 54.104 195.138 54.808 195.458 55.416C195.794 56.008 196.226 56.464 196.754 56.784C197.298 57.104 197.874 57.264 198.482 57.264C199.106 57.264 199.69 57.112 200.234 56.808C200.778 56.488 201.21 56.04 201.53 55.464C201.85 54.872 202.01 54.168 202.01 53.352ZM221.396 46.704L213.164 66.288H209.588L212.468 59.664L207.14 46.704H210.908L214.34 55.992L217.82 46.704H221.396ZM232.286 57.336H237.806V60H228.926V43.248H232.286V57.336ZM245.845 60.216C244.565 60.216 243.413 59.936 242.389 59.376C241.365 58.8 240.557 57.992 239.965 56.952C239.389 55.912 239.101 54.712 239.101 53.352C239.101 51.992 239.397 50.792 239.989 49.752C240.597 48.712 241.421 47.912 242.461 47.352C243.501 46.776 244.661 46.488 245.941 46.488C247.221 46.488 248.381 46.776 249.421 47.352C250.461 47.912 251.277 48.712 251.869 49.752C252.477 50.792 252.781 51.992 252.781 53.352C252.781 54.712 252.469 55.912 251.845 56.952C251.237 57.992 250.405 58.8 249.349 59.376C248.309 59.936 247.141 60.216 245.845 60.216ZM245.845 57.288C246.453 57.288 247.021 57.144 247.549 56.856C248.093 56.552 248.525 56.104 248.845 55.512C249.165 54.92 249.325 54.2 249.325 53.352C249.325 52.088 248.989 51.12 248.317 50.448C247.661 49.76 246.853 49.416 245.893 49.416C244.933 49.416 244.125 49.76 243.469 50.448C242.829 51.12 242.509 52.088 242.509 53.352C242.509 54.616 242.821 55.592 243.445 56.28C244.085 56.952 244.885 57.288 245.845 57.288ZM260.454 46.488C261.446 46.488 262.318 46.688 263.07 47.088C263.822 47.472 264.414 47.976 264.846 48.6V46.704H268.23V60.096C268.23 61.328 267.982 62.424 267.486 63.384C266.99 64.36 266.246 65.128 265.254 65.688C264.262 66.264 263.062 66.552 261.654 66.552C259.766 66.552 258.214 66.112 256.998 65.232C255.798 64.352 255.118 63.152 254.958 61.632H258.294C258.47 62.24 258.846 62.72 259.422 63.072C260.014 63.44 260.726 63.624 261.558 63.624C262.534 63.624 263.326 63.328 263.934 62.736C264.542 62.16 264.846 61.28 264.846 60.096V58.032C264.414 58.656 263.814 59.176 263.046 59.592C262.294 60.008 261.43 60.216 260.454 60.216C259.334 60.216 258.31 59.928 257.382 59.352C256.454 58.776 255.718 57.968 255.174 56.928C254.646 55.872 254.382 54.664 254.382 53.304C254.382 51.96 254.646 50.768 255.174 49.728C255.718 48.688 256.446 47.888 257.358 47.328C258.286 46.768 259.318 46.488 260.454 46.488ZM264.846 53.352C264.846 52.536 264.686 51.84 264.366 51.264C264.046 50.672 263.614 50.224 263.07 49.92C262.526 49.6 261.942 49.44 261.318 49.44C260.694 49.44 260.118 49.592 259.59 49.896C259.062 50.2 258.63 50.648 258.294 51.24C257.974 51.816 257.814 52.504 257.814 53.304C257.814 54.104 257.974 54.808 258.294 55.416C258.63 56.008 259.062 56.464 259.59 56.784C260.134 57.104 260.71 57.264 261.318 57.264C261.942 57.264 262.526 57.112 263.07 56.808C263.614 56.488 264.046 56.04 264.366 55.464C264.686 54.872 264.846 54.168 264.846 53.352ZM276.719 46.488C277.711 46.488 278.583 46.688 279.335 47.088C280.087 47.472 280.679 47.976 281.111 48.6V46.704H284.495V60.096C284.495 61.328 284.247 62.424 283.751 63.384C283.255 64.36 282.511 65.128 281.519 65.688C280.527 66.264 279.327 66.552 277.919 66.552C276.031 66.552 274.479 66.112 273.263 65.232C272.063 64.352 271.383 63.152 271.223 61.632H274.559C274.735 62.24 275.111 62.72 275.687 63.072C276.279 63.44 276.991 63.624 277.823 63.624C278.799 63.624 279.591 63.328 280.199 62.736C280.807 62.16 281.111 61.28 281.111 60.096V58.032C280.679 58.656 280.079 59.176 279.311 59.592C278.559 60.008 277.695 60.216 276.719 60.216C275.599 60.216 274.575 59.928 273.647 59.352C272.719 58.776 271.983 57.968 271.439 56.928C270.911 55.872 270.647 54.664 270.647 53.304C270.647 51.96 270.911 50.768 271.439 49.728C271.983 48.688 272.711 47.888 273.623 47.328C274.551 46.768 275.583 46.488 276.719 46.488ZM281.111 53.352C281.111 52.536 280.951 51.84 280.631 51.264C280.311 50.672 279.879 50.224 279.335 49.92C278.791 49.6 278.207 49.44 277.583 49.44C276.959 49.44 276.383 49.592 275.855 49.896C275.327 50.2 274.895 50.648 274.559 51.24C274.239 51.816 274.079 52.504 274.079 53.304C274.079 54.104 274.239 54.808 274.559 55.416C274.895 56.008 275.327 56.464 275.855 56.784C276.399 57.104 276.975 57.264 277.583 57.264C278.207 57.264 278.791 57.112 279.335 56.808C279.879 56.488 280.311 56.04 280.631 55.464C280.951 54.872 281.111 54.168 281.111 53.352ZM292.985 46.488C293.977 46.488 294.849 46.688 295.601 47.088C296.353 47.472 296.945 47.976 297.377 48.6V46.704H300.761V60.096C300.761 61.328 300.513 62.424 300.017 63.384C299.521 64.36 298.777 65.128 297.785 65.688C296.793 66.264 295.593 66.552 294.185 66.552C292.297 66.552 290.745 66.112 289.529 65.232C288.329 64.352 287.649 63.152 287.489 61.632H290.825C291.001 62.24 291.377 62.72 291.953 63.072C292.545 63.44 293.257 63.624 294.089 63.624C295.065 63.624 295.857 63.328 296.465 62.736C297.073 62.16 297.377 61.28 297.377 60.096V58.032C296.945 58.656 296.345 59.176 295.577 59.592C294.825 60.008 293.961 60.216 292.985 60.216C291.865 60.216 290.841 59.928 289.913 59.352C288.985 58.776 288.249 57.968 287.705 56.928C287.177 55.872 286.913 54.664 286.913 53.304C286.913 51.96 287.177 50.768 287.705 49.728C288.249 48.688 288.977 47.888 289.889 47.328C290.817 46.768 291.849 46.488 292.985 46.488ZM297.377 53.352C297.377 52.536 297.217 51.84 296.897 51.264C296.577 50.672 296.145 50.224 295.601 49.92C295.057 49.6 294.473 49.44 293.849 49.44C293.225 49.44 292.649 49.592 292.121 49.896C291.593 50.2 291.161 50.648 290.825 51.24C290.505 51.816 290.345 52.504 290.345 53.304C290.345 54.104 290.505 54.808 290.825 55.416C291.161 56.008 291.593 56.464 292.121 56.784C292.665 57.104 293.241 57.264 293.849 57.264C294.473 57.264 295.057 57.112 295.601 56.808C296.145 56.488 296.577 56.04 296.897 55.464C297.217 54.872 297.377 54.168 297.377 53.352ZM316.403 53.064C316.403 53.544 316.371 53.976 316.307 54.36H306.587C306.667 55.32 307.003 56.072 307.595 56.616C308.187 57.16 308.915 57.432 309.779 57.432C311.027 57.432 311.915 56.896 312.443 55.824H316.067C315.683 57.104 314.947 58.16 313.859 58.992C312.771 59.808 311.435 60.216 309.851 60.216C308.571 60.216 307.419 59.936 306.395 59.376C305.387 58.8 304.595 57.992 304.019 56.952C303.459 55.912 303.179 54.712 303.179 53.352C303.179 51.976 303.459 50.768 304.019 49.728C304.579 48.688 305.363 47.888 306.371 47.328C307.379 46.768 308.539 46.488 309.851 46.488C311.115 46.488 312.243 46.76 313.235 47.304C314.243 47.848 315.019 48.624 315.563 49.632C316.123 50.624 316.403 51.768 316.403 53.064ZM312.923 52.104C312.907 51.24 312.595 50.552 311.987 50.04C311.379 49.512 310.635 49.248 309.755 49.248C308.923 49.248 308.219 49.504 307.643 50.016C307.083 50.512 306.739 51.208 306.611 52.104H312.923ZM317.991 53.304C317.991 51.96 318.255 50.768 318.783 49.728C319.327 48.688 320.063 47.888 320.991 47.328C321.919 46.768 322.951 46.488 324.087 46.488C324.951 46.488 325.775 46.68 326.559 47.064C327.343 47.432 327.967 47.928 328.431 48.552V42.24H331.839V60H328.431V58.032C328.015 58.688 327.431 59.216 326.679 59.616C325.927 60.016 325.055 60.216 324.063 60.216C322.943 60.216 321.919 59.928 320.991 59.352C320.063 58.776 319.327 57.968 318.783 56.928C318.255 55.872 317.991 54.664 317.991 53.304ZM328.455 53.352C328.455 52.536 328.295 51.84 327.975 51.264C327.655 50.672 327.223 50.224 326.679 49.92C326.135 49.6 325.551 49.44 324.927 49.44C324.303 49.44 323.727 49.592 323.199 49.896C322.671 50.2 322.239 50.648 321.903 51.24C321.583 51.816 321.423 52.504 321.423 53.304C321.423 54.104 321.583 54.808 321.903 55.416C322.239 56.008 322.671 56.464 323.199 56.784C323.743 57.104 324.319 57.264 324.927 57.264C325.551 57.264 326.135 57.112 326.679 56.808C327.223 56.488 327.655 56.04 327.975 55.464C328.295 54.872 328.455 54.168 328.455 53.352ZM344.2 43.248V60H340.84V43.248H344.2ZM354.887 46.512C356.471 46.512 357.751 47.016 358.727 48.024C359.703 49.016 360.191 50.408 360.191 52.2V60H356.831V52.656C356.831 51.6 356.567 50.792 356.039 50.232C355.511 49.656 354.791 49.368 353.879 49.368C352.951 49.368 352.215 49.656 351.671 50.232C351.143 50.792 350.879 51.6 350.879 52.656V60H347.519V46.704H350.879V48.36C351.327 47.784 351.895 47.336 352.583 47.016C353.287 46.68 354.055 46.512 354.887 46.512ZM373.449 42.96L373.065 54.552H370.233L369.825 42.96H373.449ZM371.721 60.168C371.113 60.168 370.609 59.984 370.209 59.616C369.825 59.232 369.633 58.76 369.633 58.2C369.633 57.64 369.825 57.176 370.209 56.808C370.609 56.424 371.113 56.232 371.721 56.232C372.313 56.232 372.801 56.424 373.185 56.808C373.569 57.176 373.761 57.64 373.761 58.2C373.761 58.76 373.569 59.232 373.185 59.616C372.801 59.984 372.313 60.168 371.721 60.168Z"/></g><defs><clipPath id="clip0_127_14"><rect width="630.612" height="532.5" fill="#fff"/></clipPath></defs></svg>