<svg xmlns="http://www.w3.org/2000/svg" xmlns:xlink="http://www.w3.org/1999/xlink" width="375" height="375" preserveAspectRatio="xMidYMid meet" version="1.0" viewBox="0 0 375 375" zoomAndPan="magnify"><defs><clipPath id="clip-0"><path d="M 93 81 L 299 81 L 299 236 L 93 236 Z M 93 81" clip-rule="nonzero"/></clipPath><clipPath id="clip-1"><path d="M 62.34375 110.546875 L 269.769531 55.910156 L 312.75 219.09375 L 105.324219 273.730469 Z M 62.34375 110.546875" clip-rule="nonzero"/></clipPath><clipPath id="clip-2"><path d="M 62.34375 110.546875 L 269.769531 55.910156 L 312.75 219.09375 L 105.324219 273.730469 Z M 62.34375 110.546875" clip-rule="nonzero"/></clipPath></defs><g clip-path="url(#clip-0)"><g clip-path="url(#clip-1)"><g clip-path="url(#clip-2)"><path fill="#FCC000" fill-opacity="1" fill-rule="nonzero" d="M 99.257812 227.332031 C 110.535156 224.363281 121.8125 221.390625 133.089844 218.421875 C 135.023438 217.914062 136.261719 216.195312 136.347656 214.238281 C 137.445312 189.789062 138.542969 165.34375 139.644531 140.894531 C 136.925781 141.609375 134.207031 142.328125 131.488281 143.042969 C 146.144531 164.347656 160.800781 185.652344 175.457031 206.957031 C 177.789062 210.351562 183.660156 209.417969 183.613281 204.808594 C 183.21875 165.152344 182.824219 125.496094 182.425781 85.839844 C 179.707031 86.554688 176.988281 87.269531 174.269531 87.984375 C 196.585938 136.464844 218.902344 184.945312 241.21875 233.421875 C 242.777344 236.808594 248.515625 235.992188 249.214844 232.398438 C 252.304688 216.558594 255.390625 200.71875 258.476562 184.875 C 259.246094 180.9375 253.347656 186.746094 257.917969 185.542969 C 262.367188 184.371094 266.816406 183.199219 271.265625 182.027344 C 279.246094 179.925781 287.222656 177.824219 295.203125 175.722656 C 300.65625 174.285156 298.425781 165.816406 292.972656 167.25 C 279.8125 170.714844 266.660156 174.179688 253.5 177.648438 C 252.101562 178.015625 250.691406 179.226562 250.402344 180.707031 C 247.195312 197.152344 243.992188 213.601562 240.785156 230.046875 C 243.453125 229.703125 246.117188 229.363281 248.78125 229.023438 C 226.464844 180.546875 204.148438 132.066406 181.832031 83.585938 C 179.976562 79.554688 173.636719 81.597656 173.675781 85.734375 C 174.074219 125.390625 174.46875 165.046875 174.863281 204.707031 C 177.582031 203.988281 180.300781 203.273438 183.019531 202.558594 C 168.363281 181.25 153.707031 159.945312 139.050781 138.640625 C 136.621094 135.109375 131.097656 136.285156 130.894531 140.789062 C 129.796875 165.238281 128.699219 189.6875 127.601562 214.132812 C 128.6875 212.738281 129.773438 211.34375 130.859375 209.949219 C 119.582031 212.921875 108.304688 215.890625 97.027344 218.863281 C 91.574219 220.296875 93.804688 228.769531 99.257812 227.332031 Z M 99.257812 227.332031"/></g></g></g><path fill="#FFF" fill-opacity="1" fill-rule="nonzero" d="M 189.550781 297.113281 C 156.738281 297.113281 125.839844 284.34375 102.652344 261.105469 C 79.417969 237.921875 66.644531 207.023438 66.644531 174.207031 C 66.644531 141.390625 79.417969 110.492188 102.652344 87.304688 C 125.839844 64.070312 156.738281 51.296875 189.550781 51.296875 C 222.367188 51.296875 253.265625 64.070312 276.453125 87.304688 C 299.6875 110.542969 312.460938 141.390625 312.460938 174.207031 C 312.460938 207.023438 299.6875 237.921875 276.453125 261.105469 C 253.265625 284.34375 222.367188 297.113281 189.550781 297.113281 Z M 189.550781 58.667969 C 158.703125 58.667969 129.671875 70.703125 107.859375 92.511719 C 86.046875 114.324219 74.011719 143.355469 74.011719 174.207031 C 74.011719 205.054688 86.046875 234.089844 107.859375 255.898438 C 129.671875 277.710938 158.703125 289.746094 189.550781 289.746094 C 220.402344 289.746094 249.433594 277.710938 271.246094 255.898438 C 293.054688 234.089844 305.09375 205.054688 305.09375 174.207031 C 305.09375 143.355469 293.054688 114.324219 271.246094 92.511719 C 249.433594 70.703125 220.402344 58.667969 189.550781 58.667969 Z M 189.550781 58.667969"/></svg>